<svg xmlns="http://www.w3.org/2000/svg" version="1.1" viewBox="-5.0 -10.0 110.0 135.0">
 <path d="m90.078 58.465v-12.254h-80.16v12.254zm-62.367 10.613h44.574c0.82812 0 1.5 0.67188 1.5 1.5v13.809c0 0.82812-0.67188 1.5-1.5 1.5h-44.574c-0.82813 0-1.5-0.67188-1.5-1.5v-13.809c0-0.82812 0.67187-1.5 1.5-1.5zm43.074 3h-41.574v10.809h41.574zm-39.039-43.098c0.10156-0.28906 0.22656-0.57422 0.38281-0.83984 2.0781-3.3438 4.1211-6.8555 6.1367-10.395h-17.094c-1.0977 0-1.9492 0.48828-2.6133 1.2461-0.78125 0.89062-1.3438 2.1523-1.7539 3.4883l-6.3594 20.727h79.109l-6.3789-20.797c-0.41016-1.3164-0.96875-2.5508-1.7383-3.4297-0.66016-0.75391-1.5117-1.2383-2.6094-1.2383h-10.406c-0.10547 0.5-0.28516 0.98828-0.55469 1.4531l-5.6445 9.7773h13.367c0.82812 0 1.5 0.67188 1.5 1.5s-0.67188 1.5-1.5 1.5h-51.184c-0.82812 0-1.5-0.67188-1.5-1.5s0.67188-1.5 1.5-1.5h7.3398zm8.2188-14.23c1.6953-3 3.3711-5.9922 5.0352-8.8984 0.67969-1.1094 1.7461-1.8633 2.9219-2.1797 1.1719-0.3125 2.4648-0.19531 3.6094 0.42578l14.539 8.3945c0.9375 0.53906 1.6289 1.3438 2.0352 2.2578h10.727c2.0703 0 3.6484 0.89062 4.8594 2.2695 1.0703 1.2227 1.8203 2.8359 2.3398 4.5156l6.9414 22.617c0.070313 0.17188 0.10938 0.36328 0.10938 0.55859v15.254c0 0.82812-0.67188 1.5-1.5 1.5h-3.668v27.738c0 1.9961-0.82422 3.8203-2.1445 5.1406l-0.007812 0.007812c-1.3242 1.3203-3.1445 2.1406-5.1406 2.1406h-61.234c-2 0-3.8242-0.82031-5.1445-2.1445-1.3281-1.3281-2.1484-3.1484-2.1484-5.1523v-27.738h-3.668c-0.82812 0-1.5-0.67188-1.5-1.5v-15.254c0-0.19531 0.039063-0.38672 0.10938-0.55859l6.918-22.547c0.51953-1.6914 1.2695-3.3281 2.3594-4.5781 1.2109-1.3828 2.793-2.2812 4.8633-2.2812h18.797zm18.812 14.23 6.5039-11.266c0.52344-0.91016 0.21094-2.1055-0.70703-2.6367l-14.422-8.3242c-0.45312-0.26172-0.98047-0.31641-1.457-0.1875-0.47656 0.12891-0.91016 0.4375-1.1719 0.89453-4.1406 7.1758-8.2812 14.348-12.426 21.523h23.68zm-43.688 32.488v27.738c0 1.1797 0.48438 2.2539 1.2617 3.0312 0.77734 0.77734 1.8555 1.2617 3.0312 1.2617h61.234c1.1758 0 2.25-0.48438 3.0273-1.2617 0.78125-0.78125 1.2656-1.8555 1.2656-3.0312v-27.738h-69.824z"/>
<text x="0.0" y="117.5" font-size="5.0" font-weight="bold" font-family="Arbeit Regular, Helvetica, Arial-Unicode, Arial, Sans-serif" fill="#000000">Created by Imron Sadewo</text><text x="0.0" y="122.5" font-size="5.0" font-weight="bold" font-family="Arbeit Regular, Helvetica, Arial-Unicode, Arial, Sans-serif" fill="#000000">from Noun Project</text></svg>